<svg width="38" height="38" viewBox="0 0 38 38" fill="none" xmlns="http://www.w3.org/2000/svg">
<circle cx="19.0474" cy="18.8467" r="18.5" fill="url(#paint0_linear_11507_5141)"/>
<path d="M23.6452 11.1836H14.4495C12.7566 11.1836 11.3843 12.5559 11.3843 14.2488V23.4445C11.3843 25.1374 12.7566 26.5097 14.4495 26.5097H23.6452C25.3381 26.5097 26.7104 25.1374 26.7104 23.4445V14.2489C26.7105 12.5559 25.3381 11.1836 23.6452 11.1836ZM22.1126 13.4825H24.4115V15.7814H22.1126V13.4825ZM19.0473 15.7815C20.7402 15.7815 22.1126 17.1539 22.1126 18.8467C22.1126 20.5396 20.7402 21.9119 19.0473 21.9119C17.3545 21.9119 15.9821 20.5396 15.9821 18.8467C15.9821 17.1539 17.3545 15.7815 19.0473 15.7815ZM25.1778 23.4446C25.1778 24.291 24.4916 24.9772 23.6452 24.9772H14.4495C13.6031 24.9772 12.9169 24.291 12.9169 23.4446V18.0804H14.5261C14.0659 20.5777 15.7172 22.9752 18.2145 23.4354C20.7118 23.8957 23.1093 22.2443 23.5695 19.747C23.6243 19.4502 23.6496 19.1486 23.6452 18.8467C23.6414 18.5896 23.6158 18.3333 23.5685 18.0804H25.1778V23.4446H25.1778Z" fill="#232626"/>
<defs>
<linearGradient id="paint0_linear_11507_5141" x1="0.547363" y1="18.8467" x2="37.5474" y2="18.8467" gradientUnits="userSpaceOnUse">
<stop stop-color="#9A762F"/>
<stop offset="1" stop-color="#F2C977"/>
</linearGradient>
</defs>
</svg>
