<svg width="132" height="59" viewBox="0 0 132 59" fill="none" xmlns="http://www.w3.org/2000/svg">
<path d="M0.418457 42.3885L18.6106 1.57274H27.94L46.1905 42.3885H36.2781L21.3511 6.35402H25.0829L10.0976 42.3885H0.418457ZM9.51455 33.6423L12.0218 26.4704H33.0128L35.5784 33.6423H9.51455Z" fill="white"/>
<path d="M50.4251 42.3885V1.57274H70.3665C75.4977 1.57274 79.346 2.54455 81.9116 4.48816C84.516 6.43177 85.8182 8.99733 85.8182 12.1849C85.8182 14.3228 85.2935 16.1887 84.2439 17.7824C83.1944 19.3373 81.7561 20.5424 79.9291 21.3976C78.1021 22.2527 76.003 22.6803 73.6318 22.6803L74.7397 20.2897C77.3052 20.2897 79.5793 20.7173 81.5617 21.5725C83.5442 22.3888 85.0797 23.6133 86.1681 25.2459C87.2954 26.8785 87.859 28.8805 87.859 31.2517C87.859 34.7502 86.4791 37.4906 83.7191 39.4731C80.9592 41.4167 76.8971 42.3885 71.5327 42.3885H50.4251ZM59.8127 35.2749H70.833C73.282 35.2749 75.1284 34.8862 76.3723 34.1088C77.6551 33.2924 78.2965 32.0097 78.2965 30.2604C78.2965 28.55 77.6551 27.2867 76.3723 26.4704C75.1284 25.6152 73.282 25.1876 70.833 25.1876H59.113V18.3072H69.2004C71.4938 18.3072 73.2431 17.9185 74.4481 17.1411C75.692 16.3247 76.314 15.1003 76.314 13.4676C76.314 11.8739 75.692 10.6883 74.4481 9.91083C73.2431 9.09451 71.4938 8.68636 69.2004 8.68636H59.8127V35.2749Z" fill="white"/>
<path d="M114.544 43.0882C111.395 43.0882 108.46 42.5829 105.739 41.5722C103.057 40.5227 100.725 39.0455 98.7422 37.1408C96.7597 35.2361 95.2048 33.0009 94.0775 30.4353C92.9891 27.8698 92.4449 25.0515 92.4449 21.9806C92.4449 18.9097 92.9891 16.0915 94.0775 13.5259C95.2048 10.9604 96.7597 8.72523 98.7422 6.82049C100.764 4.91575 103.115 3.45805 105.797 2.44737C108.48 1.39782 111.415 0.873047 114.602 0.873047C118.139 0.873047 121.327 1.495 124.165 2.73891C127.041 3.94395 129.451 5.73207 131.395 8.10327L125.331 13.7009C123.931 12.1071 122.376 10.9215 120.666 10.1441C118.956 9.32775 117.09 8.91959 115.069 8.91959C113.164 8.91959 111.415 9.23057 109.821 9.85252C108.227 10.4745 106.847 11.3685 105.681 12.5347C104.515 13.7009 103.601 15.0808 102.94 16.6746C102.318 18.2683 102.007 20.037 102.007 21.9806C102.007 23.9243 102.318 25.6929 102.94 27.2867C103.601 28.8805 104.515 30.2604 105.681 31.4266C106.847 32.5927 108.227 33.4868 109.821 34.1088C111.415 34.7307 113.164 35.0417 115.069 35.0417C117.09 35.0417 118.956 34.653 120.666 33.8755C122.376 33.0592 123.931 31.8347 125.331 30.2021L131.395 35.7997C129.451 38.1709 127.041 39.9785 124.165 41.2224C121.327 42.4663 118.12 43.0882 114.544 43.0882Z" fill="white"/>
<path d="M2.5274 58.7008C2.03079 58.7008 1.55487 58.6357 1.09964 58.5057C0.644414 58.3697 0.277866 58.1953 0 57.9824L0.487744 56.9005C0.753787 57.0897 1.06713 57.2464 1.42776 57.3705C1.79431 57.4888 2.16381 57.5479 2.53627 57.5479C2.82005 57.5479 3.04766 57.5213 3.21911 57.4681C3.39647 57.409 3.52654 57.3292 3.60931 57.2287C3.69208 57.1282 3.73346 57.0129 3.73346 56.8828C3.73346 56.7173 3.66843 56.5872 3.53836 56.4926C3.4083 56.3921 3.23685 56.3123 3.02401 56.2532C2.81118 56.1881 2.5747 56.129 2.31457 56.0758C2.06035 56.0167 1.80318 55.9457 1.54305 55.863C1.28883 55.7802 1.0553 55.6738 0.842467 55.5437C0.629634 55.4137 0.455228 55.2422 0.319251 55.0294C0.189186 54.8165 0.124153 54.5446 0.124153 54.2135C0.124153 53.8588 0.218746 53.5366 0.407932 53.2469C0.603029 52.9513 0.89272 52.7178 1.277 52.5463C1.6672 52.369 2.15494 52.2803 2.74024 52.2803C3.13043 52.2803 3.51471 52.3276 3.89309 52.4222C4.27146 52.5108 4.60549 52.6468 4.89518 52.8301L4.45178 53.9209C4.16208 53.7553 3.87239 53.6341 3.5827 53.5573C3.29301 53.4745 3.00923 53.4331 2.73137 53.4331C2.4535 53.4331 2.22589 53.4656 2.04853 53.5307C1.87116 53.5957 1.74406 53.6814 1.6672 53.7878C1.59034 53.8884 1.55191 54.0066 1.55191 54.1426C1.55191 54.3022 1.61695 54.4323 1.74701 54.5328C1.87708 54.6274 2.04853 54.7042 2.26136 54.7633C2.47419 54.8225 2.70772 54.8816 2.96194 54.9407C3.22207 54.9998 3.47924 55.0678 3.73346 55.1447C3.99359 55.2215 4.23007 55.325 4.44291 55.455C4.65574 55.5851 4.82719 55.7566 4.95725 55.9694C5.09323 56.1822 5.16122 56.4512 5.16122 56.7764C5.16122 57.1252 5.06367 57.4444 4.86857 57.7341C4.67348 58.0238 4.38083 58.2574 3.99063 58.4347C3.60635 58.6121 3.11861 58.7008 2.5274 58.7008Z" fill="white"/>
<path d="M8.90085 58.7008C8.01995 58.7008 7.3312 58.4554 6.83459 57.9647C6.33797 57.474 6.08967 56.7734 6.08967 55.863V52.3867H7.5263V55.8098C7.5263 56.401 7.64749 56.8266 7.88989 57.0868C8.13228 57.3469 8.47222 57.477 8.90972 57.477C9.34721 57.477 9.68715 57.3469 9.92955 57.0868C10.1719 56.8266 10.2931 56.401 10.2931 55.8098V52.3867H11.712V55.863C11.712 56.7734 11.4637 57.474 10.9671 57.9647C10.4705 58.4554 9.78174 58.7008 8.90085 58.7008Z" fill="white"/>
<path d="M13.1317 58.5943V52.3867H15.8187C16.3744 52.3867 16.8533 52.4783 17.2553 52.6616C17.6574 52.839 17.9677 53.0961 18.1865 53.4331C18.4052 53.7701 18.5146 54.1721 18.5146 54.6392C18.5146 55.1003 18.4052 55.4994 18.1865 55.8364C17.9677 56.1734 17.6574 56.4335 17.2553 56.6168C16.8533 56.7941 16.3744 56.8828 15.8187 56.8828H13.9298L14.5683 56.2354V58.5943H13.1317ZM14.5683 56.3951L13.9298 55.7122H15.7389C16.1823 55.7122 16.5134 55.6176 16.7321 55.4284C16.9509 55.2393 17.0602 54.9762 17.0602 54.6392C17.0602 54.2963 16.9509 54.0302 16.7321 53.8411C16.5134 53.6519 16.1823 53.5573 15.7389 53.5573H13.9298L14.5683 52.8744V56.3951Z" fill="white"/>
<path d="M19.5403 58.5943V52.3867H22.2273C22.783 52.3867 23.2619 52.4783 23.6639 52.6616C24.0659 52.839 24.3763 53.0961 24.5951 53.4331C24.8138 53.7701 24.9232 54.1721 24.9232 54.6392C24.9232 55.1003 24.8138 55.4994 24.5951 55.8364C24.3763 56.1734 24.0659 56.4335 23.6639 56.6168C23.2619 56.7941 22.783 56.8828 22.2273 56.8828H20.3384L20.9769 56.2354V58.5943H19.5403ZM20.9769 56.3951L20.3384 55.7122H22.1475C22.5909 55.7122 22.9219 55.6176 23.1407 55.4284C23.3594 55.2393 23.4688 54.9762 23.4688 54.6392C23.4688 54.2963 23.3594 54.0302 23.1407 53.8411C22.9219 53.6519 22.5909 53.5573 22.1475 53.5573H20.3384L20.9769 52.8744V56.3951Z" fill="white"/>
<path d="M25.9488 58.5943V52.3867H27.3855V57.4238H30.4981V58.5943H25.9488Z" fill="white"/>
<path d="M32.203 58.5943V56.0581L32.5312 56.9271L29.7998 52.3867H31.3251L33.418 55.8718H32.54L34.6418 52.3867H36.0518L33.3204 56.9271L33.6397 56.0581V58.5943H32.203Z" fill="white"/>
<path d="M42.1351 58.7008C41.6563 58.7008 41.2099 58.6239 40.7961 58.4702C40.3881 58.3106 40.0334 58.0859 39.7319 57.7962C39.4304 57.5065 39.1939 57.1666 39.0224 56.7764C38.8569 56.3862 38.7741 55.9576 38.7741 55.4905C38.7741 55.0235 38.8569 54.5948 39.0224 54.2046C39.1939 53.8145 39.4304 53.4745 39.7319 53.1848C40.0393 52.8951 40.397 52.6734 40.8049 52.5197C41.2129 52.3601 41.6592 52.2803 42.144 52.2803C42.682 52.2803 43.1668 52.3749 43.5984 52.5641C44.0359 52.7473 44.4024 53.0193 44.698 53.3799L43.7757 54.2313C43.5629 53.9889 43.3264 53.8085 43.0663 53.6903C42.8062 53.5661 42.5224 53.5041 42.215 53.5041C41.9253 53.5041 41.6592 53.5514 41.4168 53.646C41.1744 53.7405 40.9646 53.8765 40.7872 54.0539C40.6098 54.2313 40.4709 54.4411 40.3704 54.6835C40.2758 54.9259 40.2285 55.1949 40.2285 55.4905C40.2285 55.7861 40.2758 56.0551 40.3704 56.2975C40.4709 56.5399 40.6098 56.7498 40.7872 56.9271C40.9646 57.1045 41.1744 57.2405 41.4168 57.3351C41.6592 57.4297 41.9253 57.477 42.215 57.477C42.5224 57.477 42.8062 57.4178 43.0663 57.2996C43.3264 57.1755 43.5629 56.9892 43.7757 56.7409L44.698 57.5923C44.4024 57.9529 44.0359 58.2278 43.5984 58.417C43.1668 58.6062 42.6791 58.7008 42.1351 58.7008Z" fill="white"/>
<path d="M49.9249 52.3867H51.3615V58.5943H49.9249V52.3867ZM47.1048 58.5943H45.6682V52.3867H47.1048V58.5943ZM50.0313 56.0492H46.9984V54.8343H50.0313V56.0492Z" fill="white"/>
<path d="M52.0143 58.5943L54.7812 52.3867H56.2001L58.9758 58.5943H57.4682L55.198 53.1139H55.7655L53.4864 58.5943H52.0143ZM53.3977 57.2641L53.7791 56.1734H56.9716L57.3618 57.2641H53.3977Z" fill="white"/>
<path d="M59.6198 58.5943V52.3867H61.0564V58.5943H59.6198Z" fill="white"/>
<path d="M62.5296 58.5943V52.3867H63.718L67.3805 56.8562H66.8041V52.3867H68.223V58.5943H67.0435L63.3721 54.1248H63.9485V58.5943H62.5296Z" fill="white"/>
<path d="M75.1739 58.7008C74.6951 58.7008 74.2487 58.6239 73.8348 58.4702C73.4269 58.3106 73.0722 58.0859 72.7707 57.7962C72.4692 57.5065 72.2327 57.1666 72.0612 56.7764C71.8957 56.3862 71.8129 55.9576 71.8129 55.4905C71.8129 55.0235 71.8957 54.5948 72.0612 54.2046C72.2327 53.8145 72.4692 53.4745 72.7707 53.1848C73.0781 52.8951 73.4358 52.6734 73.8437 52.5197C74.2516 52.3601 74.698 52.2803 75.1828 52.2803C75.7208 52.2803 76.2056 52.3749 76.6372 52.5641C77.0747 52.7473 77.4412 53.0193 77.7368 53.3799L76.8145 54.2313C76.6017 53.9889 76.3652 53.8085 76.1051 53.6903C75.845 53.5661 75.5612 53.5041 75.2537 53.5041C74.9641 53.5041 74.698 53.5514 74.4556 53.646C74.2132 53.7405 74.0033 53.8765 73.826 54.0539C73.6486 54.2313 73.5097 54.4411 73.4092 54.6835C73.3146 54.9259 73.2673 55.1949 73.2673 55.4905C73.2673 55.7861 73.3146 56.0551 73.4092 56.2975C73.5097 56.5399 73.6486 56.7498 73.826 56.9271C74.0033 57.1045 74.2132 57.2405 74.4556 57.3351C74.698 57.4297 74.9641 57.477 75.2537 57.477C75.5612 57.477 75.845 57.4178 76.1051 57.2996C76.3652 57.1755 76.6017 56.9892 76.8145 56.7409L77.7368 57.5923C77.4412 57.9529 77.0747 58.2278 76.6372 58.417C76.2056 58.6062 75.7178 58.7008 75.1739 58.7008Z" fill="white"/>
<path d="M81.5922 58.7008C81.1015 58.7008 80.6463 58.6209 80.2265 58.4613C79.8127 58.3017 79.452 58.077 79.1446 57.7873C78.8431 57.4977 78.6066 57.1577 78.4352 56.7675C78.2696 56.3773 78.1869 55.9517 78.1869 55.4905C78.1869 55.0294 78.2696 54.6037 78.4352 54.2135C78.6066 53.8233 78.8461 53.4834 79.1535 53.1937C79.4609 52.904 79.8215 52.6793 80.2354 52.5197C80.6492 52.3601 81.0985 52.2803 81.5833 52.2803C82.074 52.2803 82.5233 52.3601 82.9313 52.5197C83.3451 52.6793 83.7028 52.904 84.0043 53.1937C84.3117 53.4834 84.5512 53.8233 84.7226 54.2135C84.8941 54.5978 84.9798 55.0235 84.9798 55.4905C84.9798 55.9517 84.8941 56.3803 84.7226 56.7764C84.5512 57.1666 84.3117 57.5065 84.0043 57.7962C83.7028 58.08 83.3451 58.3017 82.9313 58.4613C82.5233 58.6209 82.077 58.7008 81.5922 58.7008ZM81.5833 57.477C81.8612 57.477 82.1154 57.4297 82.346 57.3351C82.5825 57.2405 82.7894 57.1045 82.9668 56.9271C83.1441 56.7498 83.2801 56.5399 83.3747 56.2975C83.4752 56.0551 83.5254 55.7861 83.5254 55.4905C83.5254 55.1949 83.4752 54.9259 83.3747 54.6835C83.2801 54.4411 83.1441 54.2313 82.9668 54.0539C82.7953 53.8765 82.5913 53.7405 82.3549 53.646C82.1184 53.5514 81.8612 53.5041 81.5833 53.5041C81.3055 53.5041 81.0483 53.5514 80.8118 53.646C80.5812 53.7405 80.3773 53.8765 80.1999 54.0539C80.0226 54.2313 79.8836 54.4411 79.7831 54.6835C79.6885 54.9259 79.6412 55.1949 79.6412 55.4905C79.6412 55.7802 79.6885 56.0492 79.7831 56.2975C79.8836 56.5399 80.0196 56.7498 80.191 56.9271C80.3684 57.1045 80.5753 57.2405 80.8118 57.3351C81.0483 57.4297 81.3055 57.477 81.5833 57.477Z" fill="white"/>
<path d="M86.0595 58.5943V52.3867H87.2478L90.9103 56.8562H90.3339V52.3867H91.7528V58.5943H90.5733L86.902 54.1248H87.4784V58.5943H86.0595Z" fill="white"/>
<path d="M95.2612 58.7008C94.7645 58.7008 94.2886 58.6357 93.8334 58.5057C93.3782 58.3697 93.0116 58.1953 92.7338 57.9824L93.2215 56.9005C93.4875 57.0897 93.8009 57.2464 94.1615 57.3705C94.5281 57.4888 94.8976 57.5479 95.27 57.5479C95.5538 57.5479 95.7814 57.5213 95.9529 57.4681C96.1302 57.409 96.2603 57.3292 96.3431 57.2287C96.4258 57.1282 96.4672 57.0129 96.4672 56.8828C96.4672 56.7173 96.4022 56.5872 96.2721 56.4926C96.1421 56.3921 95.9706 56.3123 95.7578 56.2532C95.5449 56.1881 95.3085 56.129 95.0483 56.0758C94.7941 56.0167 94.5369 55.9457 94.2768 55.863C94.0226 55.7802 93.7891 55.6738 93.5762 55.5437C93.3634 55.4137 93.189 55.2422 93.053 55.0294C92.923 54.8165 92.8579 54.5446 92.8579 54.2135C92.8579 53.8588 92.9525 53.5366 93.1417 53.2469C93.3368 52.9513 93.6265 52.7178 94.0108 52.5463C94.401 52.369 94.8887 52.2803 95.474 52.2803C95.8642 52.2803 96.2485 52.3276 96.6268 52.4222C97.0052 52.5108 97.3393 52.6468 97.6289 52.8301L97.1855 53.9209C96.8959 53.7553 96.6062 53.6341 96.3165 53.5573C96.0268 53.4745 95.743 53.4331 95.4651 53.4331C95.1873 53.4331 94.9596 53.4656 94.7823 53.5307C94.6049 53.5957 94.4778 53.6814 94.401 53.7878C94.3241 53.8884 94.2857 54.0066 94.2857 54.1426C94.2857 54.3022 94.3507 54.4323 94.4808 54.5328C94.6108 54.6274 94.7823 54.7042 94.9951 54.7633C95.208 54.8225 95.4415 54.8816 95.6957 54.9407C95.9558 54.9998 96.213 55.0678 96.4672 55.1447C96.7274 55.2215 96.9638 55.325 97.1767 55.455C97.3895 55.5851 97.561 55.7566 97.691 55.9694C97.827 56.1822 97.895 56.4512 97.895 56.7764C97.895 57.1252 97.7974 57.4444 97.6023 57.7341C97.4072 58.0238 97.1146 58.2574 96.7244 58.4347C96.3401 58.6121 95.8524 58.7008 95.2612 58.7008Z" fill="white"/>
<path d="M101.635 58.7008C100.754 58.7008 100.065 58.4554 99.5684 57.9647C99.0717 57.474 98.8234 56.7734 98.8234 55.863V52.3867H100.26V55.8098C100.26 56.401 100.381 56.8266 100.624 57.0868C100.866 57.3469 101.206 57.477 101.643 57.477C102.081 57.477 102.421 57.3469 102.663 57.0868C102.906 56.8266 103.027 56.401 103.027 55.8098V52.3867H104.446V55.863C104.446 56.7734 104.197 57.474 103.701 57.9647C103.204 58.4554 102.516 58.7008 101.635 58.7008Z" fill="white"/>
<path d="M105.865 58.5943V52.3867H107.302V57.4238H110.415V58.5943H105.865Z" fill="white"/>
<path d="M111.923 58.5943V53.5573H109.937V52.3867H115.346V53.5573H113.36V58.5943H111.923Z" fill="white"/>
<path d="M116.119 58.5943V52.3867H117.556V58.5943H116.119Z" fill="white"/>
<path d="M119.029 58.5943V52.3867H120.217L123.88 56.8562H123.303V52.3867H124.722V58.5943H123.543L119.871 54.1248H120.448V58.5943H119.029Z" fill="white"/>
<path d="M129.188 58.7008C128.698 58.7008 128.245 58.6239 127.832 58.4702C127.424 58.3106 127.066 58.0859 126.759 57.7962C126.457 57.5065 126.221 57.1666 126.049 56.7764C125.884 56.3862 125.801 55.9576 125.801 55.4905C125.801 55.0235 125.884 54.5948 126.049 54.2046C126.221 53.8145 126.46 53.4745 126.767 53.1848C127.075 52.8951 127.435 52.6734 127.849 52.5197C128.263 52.3601 128.718 52.2803 129.215 52.2803C129.765 52.2803 130.258 52.3719 130.696 52.5552C131.139 52.7385 131.512 53.0045 131.813 53.3533L130.891 54.2046C130.666 53.9682 130.421 53.7938 130.155 53.6814C129.889 53.5632 129.599 53.5041 129.286 53.5041C128.984 53.5041 128.71 53.5514 128.461 53.646C128.213 53.7405 127.997 53.8765 127.814 54.0539C127.637 54.2313 127.498 54.4411 127.397 54.6835C127.302 54.9259 127.255 55.1949 127.255 55.4905C127.255 55.7802 127.302 56.0462 127.397 56.2886C127.498 56.531 127.637 56.7439 127.814 56.9271C127.997 57.1045 128.21 57.2405 128.452 57.3351C128.701 57.4297 128.973 57.477 129.268 57.477C129.552 57.477 129.827 57.4326 130.093 57.3439C130.365 57.2494 130.628 57.0927 130.882 56.8739L131.698 57.9115C131.361 58.1657 130.968 58.3608 130.519 58.4968C130.075 58.6328 129.632 58.7008 129.188 58.7008ZM130.386 57.7253V55.393H131.698V57.9115L130.386 57.7253Z" fill="white"/>
</svg>
