<svg width="38" height="38" viewBox="0 0 38 38" fill="none" xmlns="http://www.w3.org/2000/svg">
<path d="M19.247 11.5049C15.2227 11.5049 13.0825 14.0837 13.0825 16.8957C13.0825 18.1998 13.8112 19.8261 14.9777 20.3419C15.1548 20.4217 15.2512 20.3877 15.2906 20.2235C15.3255 20.0987 15.4788 19.4975 15.5531 19.2139C15.576 19.1231 15.5641 19.0442 15.4907 18.9588C15.1034 18.511 14.796 17.6951 14.796 16.9297C14.796 14.9685 16.3552 13.0641 19.0084 13.0641C21.3028 13.0641 22.9079 14.5546 22.9079 16.6865C22.9079 19.0956 21.6332 20.7622 19.9766 20.7622C19.0598 20.7622 18.377 20.0427 18.5936 19.1525C18.8551 18.0925 19.3682 16.9526 19.3682 16.1881C19.3682 15.5026 18.9809 14.9354 18.1898 14.9354C17.2564 14.9354 16.4993 15.8596 16.4993 17.1004C16.4993 17.8887 16.7783 18.421 16.7783 18.421C16.7783 18.421 15.855 22.1507 15.6834 22.8473C15.3934 24.0266 15.7229 25.9364 15.7513 26.1007C15.7688 26.1916 15.8706 26.22 15.9275 26.1457C16.0184 26.0264 17.1344 24.4341 17.4473 23.2832C17.5611 22.8638 18.0283 21.1632 18.0283 21.1632C18.3357 21.7185 19.2232 22.1838 20.1684 22.1838C22.9804 22.1838 25.0123 19.7123 25.0123 16.6452C25.0022 13.7047 22.4857 11.5049 19.247 11.5049Z" fill="#C5C5C5"/>
<circle cx="19.0474" cy="18.8467" r="18" stroke="#C5C5C5"/>
</svg>
