<svg width="38" height="38" viewBox="0 0 38 38" fill="none" xmlns="http://www.w3.org/2000/svg">
<path d="M26.928 13.9506C26.337 14.2068 25.7262 14.3841 25.0761 14.4629C25.7459 14.0689 26.2582 13.4384 26.4946 12.67C25.8641 13.0444 25.1746 13.3005 24.4456 13.4581C23.8545 12.8276 23.0074 12.4336 22.0814 12.4336C20.2885 12.4336 18.8502 13.8915 18.8502 15.6647C18.8502 15.9208 18.87 16.1573 18.9291 16.3937C16.2496 16.2755 13.8854 14.9751 12.2895 13.0247C11.1468 15.0736 12.4274 16.768 13.2746 17.3394C12.7624 17.3394 12.2501 17.1818 11.8167 16.9453C11.8167 18.5412 12.9397 19.8612 14.3976 20.1567C14.0824 20.2553 13.3731 20.3144 12.9397 20.2158C13.3534 21.4965 14.5552 22.4422 15.9541 22.4619C14.8508 23.3288 13.2352 24.0183 11.1665 23.8016C12.6047 24.7276 14.2991 25.2595 16.1314 25.2595C22.0814 25.2595 25.3125 20.3341 25.3125 16.0784C25.3125 15.9405 25.3125 15.8026 25.2928 15.6647C25.9626 15.1722 26.5143 14.6008 26.928 13.9506V13.9506Z" fill="#C5C5C5"/>
<circle cx="19.0474" cy="18.8467" r="18" stroke="#C5C5C5"/>
</svg>
